<mxfile host="app.diagrams.net" modified="2021-12-13T15:50:54.919Z" agent="5.0 (Windows NT 10.0; Win64; x64) AppleWebKit/537.36 (KHTML, like Gecko) Chrome/96.0.4664.93 Safari/537.36" etag="xiRb_7o_2h011lMsHDc3" version="15.9.4" type="github">
  <diagram id="2OC8-cHyFZ_koburuEDC" name="Page-1">
    <mxGraphModel dx="1108" dy="450" grid="1" gridSize="10" guides="1" tooltips="1" connect="1" arrows="1" fold="1" page="1" pageScale="1" pageWidth="1169" pageHeight="827" math="0" shadow="0">
      <root>
        <mxCell id="0" />
        <mxCell id="1" parent="0" />
        <mxCell id="qiAg9F04uh9cn1x6aFjK-3" value="" style="edgeStyle=orthogonalEdgeStyle;rounded=0;orthogonalLoop=1;jettySize=auto;html=1;" edge="1" parent="1" source="qiAg9F04uh9cn1x6aFjK-1" target="qiAg9F04uh9cn1x6aFjK-2">
          <mxGeometry relative="1" as="geometry" />
        </mxCell>
        <mxCell id="qiAg9F04uh9cn1x6aFjK-1" value="Start" style="rounded=0;whiteSpace=wrap;html=1;" vertex="1" parent="1">
          <mxGeometry x="160" y="120" width="120" height="60" as="geometry" />
        </mxCell>
        <mxCell id="qiAg9F04uh9cn1x6aFjK-5" value="" style="edgeStyle=orthogonalEdgeStyle;rounded=0;orthogonalLoop=1;jettySize=auto;html=1;" edge="1" parent="1" source="qiAg9F04uh9cn1x6aFjK-2" target="qiAg9F04uh9cn1x6aFjK-4">
          <mxGeometry relative="1" as="geometry" />
        </mxCell>
        <mxCell id="qiAg9F04uh9cn1x6aFjK-2" value="Movement horizontal" style="whiteSpace=wrap;html=1;rounded=0;" vertex="1" parent="1">
          <mxGeometry x="320" y="120" width="120" height="60" as="geometry" />
        </mxCell>
        <mxCell id="qiAg9F04uh9cn1x6aFjK-7" value="" style="edgeStyle=orthogonalEdgeStyle;rounded=0;orthogonalLoop=1;jettySize=auto;html=1;" edge="1" parent="1" source="qiAg9F04uh9cn1x6aFjK-4" target="qiAg9F04uh9cn1x6aFjK-6">
          <mxGeometry relative="1" as="geometry" />
        </mxCell>
        <mxCell id="qiAg9F04uh9cn1x6aFjK-4" value="Slope handling" style="whiteSpace=wrap;html=1;rounded=0;" vertex="1" parent="1">
          <mxGeometry x="480" y="120" width="120" height="60" as="geometry" />
        </mxCell>
        <mxCell id="qiAg9F04uh9cn1x6aFjK-6" value="Jumping" style="whiteSpace=wrap;html=1;rounded=0;" vertex="1" parent="1">
          <mxGeometry x="640" y="120" width="120" height="60" as="geometry" />
        </mxCell>
      </root>
    </mxGraphModel>
  </diagram>
</mxfile>
